<?xml version="1.0" encoding="UTF-8"?>
<svg id="Layer_2" data-name="Layer 2" xmlns="http://www.w3.org/2000/svg" viewBox="0 0 1205.28 416.73">
  <defs>
    <style>
      .cls-1 {
        fill: #fff;
      }
    </style>
  </defs>
  <g id="Layer_2-2" data-name="Layer 2">
    <g>
      <g>
        <path class="cls-1" d="M159.29,208.55c0-64.52,0-129.05-.03-193.57,0-1.98,.73-3.11,2.44-4.08,6.14-3.49,12.18-7.16,18.3-10.7,.48-.28,1.41-.25,1.9,.03,6.92,4.01,13.78,8.11,20.68,12.13,6.11,3.56,12.26,7.06,18.38,10.59,7.86,4.53,15.72,9.06,23.57,13.6,7.05,4.08,14.09,8.18,21.14,12.24,6.93,4,13.88,7.95,20.82,11.94,6.81,3.92,13.61,7.86,20.42,11.79,7.11,4.1,14.24,8.19,21.35,12.31,7.85,4.55,15.68,9.13,23.53,13.68,2.29,1.33,4.59,2.63,6.92,3.88,2.1,1.13,3.2,2.52,3.2,5.2-.09,67.32-.08,134.64-.01,201.96,0,2.5-.87,3.94-2.97,5.12-6.66,3.74-13.25,7.61-19.88,11.41-6.13,3.52-12.27,7.03-18.42,10.52-.53,.3-1.15,.42-1.73,.63-.18-.64-.53-1.28-.53-1.92-.02-67.03-.05-134.07,.08-201.1,0-3.77-1.03-5.98-4.38-7.82-9.83-5.38-19.48-11.11-29.2-16.69-1.83-1.05-2.41-.76-2.53,1.31-.06,1-.02,2.01-.02,3.01,0,80.73,0,161.45,.03,242.18,0,1.88-.69,3.01-2.33,3.94-8.88,5.05-17.71,10.2-26.55,15.31-3.96,2.29-7.9,4.62-11.87,6.87-1.83,1.04-2.62,.54-2.68-1.58-.04-1.36,0-2.72,0-4.09,0-96.57-.01-193.14,.07-289.71,0-3.02-1.22-4.51-3.63-5.85-6.99-3.89-13.89-7.94-20.81-11.95-3.15-1.82-6.27-3.71-9.44-5.5-1.86-1.05-2.57-.59-2.62,1.62-.03,1.5,.02,3.01,.02,4.52,0,110.91,0,221.82,.05,332.73,0,1.59-.54,2.59-1.81,3.33-5.87,3.4-11.78,6.74-17.6,10.23-1.77,1.06-3.23,.69-4.78-.21-5.63-3.25-11.26-6.5-16.88-9.77-1.34-.78-2.22-1.71-2.22-3.56,.05-64.67,.05-129.34,.05-194Z"/>
        <path class="cls-1" d="M.08,208.34c0-33.7,.03-67.39-.06-101.09,0-2.32,.94-3.59,2.71-4.61,12.45-7.15,24.92-14.27,37.36-21.45,10.64-6.15,21.22-12.4,31.86-18.54,12.5-7.21,25.04-14.35,37.55-21.53,3.78-2.17,7.56-4.34,11.3-6.58,1.56-.93,2.08-.42,2.08,1.19,0,1.43-.02,2.87-.02,4.3,0,49.4,.03,98.79-.03,148.19,0,1.27-.67,2.84-1.55,3.76-4.86,5.07-9.82,10.05-14.89,14.91-1.64,1.57-1.42,2.54,.05,3.97,4.98,4.85,9.93,9.74,14.72,14.78,.96,1.01,1.66,2.74,1.66,4.15,.08,49.97,.06,99.94,.06,149.91,0,.43,.03,.86,.01,1.29-.1,1.93-.79,2.4-2.43,1.46-6.82-3.9-13.61-7.85-20.41-11.8-5.99-3.48-11.94-7.03-18-10.4-1.81-1.01-2.55-2.17-2.55-4.23,.05-35.99,.03-71.98,.07-107.97,0-1.76-.41-3.12-1.7-4.4-10.76-10.73-21.45-21.51-32.18-32.26-.31-.31-.98-.67-1.24-.54-.42,.21-.72,.79-.91,1.27-.15,.38-.05,.85-.05,1.28,0,40.65,.02,81.3,.03,121.95,0,2.11-.43,2.38-2.18,1.37-12.18-7.04-24.25-14.3-36.61-21.01C.89,313.64-.02,311.27,0,307.27c.14-32.98,.08-65.96,.08-98.94Zm43.38-40.34c0,12.04,0,24.09,0,36.13,0,.5-.09,1.04,.07,1.49,.17,.48,.51,1.05,.93,1.25,.28,.13,.93-.24,1.25-.55,10.79-10.8,21.58-21.58,32.27-32.48,.92-.94,1.47-2.64,1.48-3.99,.09-19.07,.06-38.14,.06-57.21,0-.79,.03-1.59-.09-2.36-.18-1.19-.8-1.6-1.96-.92-3.57,2.1-7.15,4.18-10.74,6.26-6.86,3.97-13.68,8.02-20.62,11.86-1.9,1.05-2.68,2.28-2.67,4.4,.05,12.04,.03,24.09,.02,36.13Z"/>
      </g>
      <g>
        <path class="cls-1" d="M476.59,320.4c0-1.58,.02-3.15,0-4.73-.03-1.58,.72-2.48,2.28-2.51,3.08-.06,6.17-.2,9.23,.02,3.08,.22,4.48,2.61,5.4,5.18,1.66,4.63-1.96,9.69-6.84,9.7-2.43,0-4.87-.01-7.3,0-1.85,.01-2.79-.83-2.76-2.73,.03-1.65,0-3.29,0-4.94h-.01Z"/>
        <path class="cls-1" d="M616.16,333.48c-1.5,0-3,.06-4.49-.02-1.28-.07-2.08-.66-1.55-2.1,1.62-4.41,3.24-8.83,4.93-13.22,.23-.58,.89-1,1.34-1.49,.36,.55,.86,1.05,1.07,1.64,1.39,3.88,2.63,7.82,4.1,11.67,1.1,2.88,.74,3.54-2.41,3.55-1,0-2,0-3,0,0-.01,0-.03,0-.04Z"/>
        <path class="cls-1" d="M419.99,333.47c-1.5,0-3.01,.06-4.51-.02-1.2-.07-1.92-.7-1.44-2.01,1.62-4.44,3.25-8.87,4.95-13.28,.23-.59,.89-1.01,1.35-1.51,.36,.55,.85,1.06,1.07,1.67,1.43,3.96,2.74,7.97,4.21,11.92,.93,2.5,.49,3.27-2.2,3.29-1.15,0-2.29,0-3.44,0,0-.02,0-.04,0-.06Z"/>
        <g>
          <path class="cls-1" d="M413.89,325.3v-41.2h18.22c1.89,0,3.65,.4,5.25,1.19s2.99,1.84,4.15,3.13c1.16,1.3,2.07,2.77,2.73,4.41,.66,1.64,.99,3.3,.99,4.96,0,2.67-.67,5.1-2,7.28-1.33,2.19-3.14,3.76-5.43,4.73l9.4,15.49h-8.99l-8.41-13.81h-7.89v13.81h-8.01Zm8.01-20.83h10.04c.73,0,1.42-.17,2.06-.52,.64-.35,1.19-.82,1.65-1.42,.46-.6,.83-1.31,1.1-2.12,.27-.81,.41-1.68,.41-2.61s-.15-1.86-.46-2.67c-.31-.81-.73-1.52-1.25-2.12-.52-.6-1.12-1.06-1.8-1.39-.68-.33-1.36-.49-2.06-.49h-9.69v13.35Z"/>
          <path class="cls-1" d="M510.1,318.28v7.02h-28.61v-41.2h28.08v7.02h-20.08v9.92h17.35v6.5h-17.35v10.73h20.6Z"/>
          <path class="cls-1" d="M557.1,284.1h7.08l15.67,41.2h-8.24l-3.83-10.27h-14.39l-3.77,10.27h-8.24l15.72-41.2Zm9.23,25.3l-5.69-16.19-5.92,16.19h11.6Z"/>
          <path class="cls-1" d="M613.38,325.3v-41.2h8.01v34.18h21v7.02h-29.01Z"/>
          <path class="cls-1" d="M746.26,318.28v7.02h-28.61v-41.2h28.08v7.02h-20.08v9.92h17.35v6.5h-17.35v10.73h20.6Z"/>
          <path class="cls-1" d="M805.21,294.89c-.27-.27-.77-.64-1.48-1.1-.72-.46-1.59-.92-2.61-1.36-1.03-.44-2.14-.82-3.34-1.13-1.2-.31-2.42-.46-3.66-.46-2.21,0-3.85,.41-4.93,1.22-1.08,.81-1.63,1.95-1.63,3.42,0,.85,.2,1.56,.61,2.12,.41,.56,1,1.05,1.77,1.48,.77,.43,1.75,.81,2.93,1.16,1.18,.35,2.54,.72,4.09,1.1,2.01,.54,3.84,1.12,5.48,1.74,1.64,.62,3.04,1.39,4.18,2.32,1.14,.93,2.02,2.04,2.64,3.34,.62,1.3,.93,2.89,.93,4.79,0,2.21-.42,4.09-1.25,5.66-.83,1.57-1.95,2.84-3.37,3.8-1.41,.97-3.04,1.67-4.87,2.12-1.84,.44-3.76,.67-5.77,.67-3.1,0-6.15-.46-9.17-1.39-3.02-.93-5.73-2.24-8.12-3.95l3.54-6.91c.35,.35,.98,.8,1.89,1.36,.91,.56,1.98,1.12,3.22,1.68,1.24,.56,2.61,1.04,4.12,1.42,1.51,.39,3.06,.58,4.64,.58,4.41,0,6.62-1.41,6.62-4.24,0-.89-.25-1.64-.75-2.26-.5-.62-1.22-1.16-2.15-1.62-.93-.46-2.05-.89-3.36-1.28-1.32-.39-2.79-.81-4.41-1.28-1.97-.54-3.69-1.13-5.14-1.77-1.45-.64-2.66-1.39-3.63-2.26-.97-.87-1.69-1.88-2.18-3.02-.48-1.14-.73-2.5-.73-4.09,0-2.09,.39-3.95,1.16-5.57s1.85-2.98,3.22-4.06c1.37-1.08,2.97-1.91,4.79-2.47,1.82-.56,3.77-.84,5.86-.84,2.9,0,5.57,.45,8.01,1.36s4.56,1.98,6.38,3.22l-3.54,6.5Z"/>
          <path class="cls-1" d="M875.77,291.12h-13.17v34.18h-7.95v-34.18h-13.17v-7.02h34.29v7.02Z"/>
          <path class="cls-1" d="M917.55,284.1h7.08l15.67,41.2h-8.24l-3.83-10.27h-14.39l-3.77,10.27h-8.24l15.72-41.2Zm9.23,25.3l-5.69-16.19-5.92,16.19h11.61Z"/>
          <path class="cls-1" d="M1000.58,291.12h-13.17v34.18h-7.95v-34.18h-13.17v-7.02h34.29v7.02Z"/>
          <path class="cls-1" d="M1063.3,318.28v7.02h-28.61v-41.2h28.08v7.02h-20.08v9.92h17.35v6.5h-17.35v10.73h20.6Z"/>
        </g>
        <g>
          <path class="cls-1" d="M413.89,250.51V112.55h61.01c6.35,0,12.21,1.33,17.58,3.98,5.37,2.66,10.01,6.15,13.89,10.49,3.89,4.34,6.93,9.26,9.13,14.77,2.2,5.51,3.3,11.05,3.3,16.61,0,8.94-2.23,17.07-6.7,24.38-4.47,7.32-10.53,12.6-18.17,15.84l31.48,51.88h-30.12l-28.17-46.24h-26.42v46.24h-26.81Zm26.81-69.75h33.61c2.46,0,4.76-.58,6.9-1.75,2.14-1.17,3.98-2.75,5.54-4.76,1.55-2.01,2.78-4.37,3.69-7.09,.91-2.72,1.36-5.64,1.36-8.74s-.52-6.22-1.55-8.94c-1.04-2.72-2.43-5.08-4.18-7.09-1.75-2.01-3.76-3.56-6.02-4.66-2.27-1.1-4.57-1.65-6.9-1.65h-32.45v44.69Z"/>
          <path class="cls-1" d="M638.89,227v23.51h-95.79V112.55h94.04v23.51h-67.23v33.23h58.1v21.76h-58.1v35.95h68.98Z"/>
          <path class="cls-1" d="M772.38,250.51v-91.32l-35.56,68.01h-14.57l-35.56-68.01v91.32h-26.81V112.55h28.76l40.8,78.5,41.19-78.5h28.56V250.51h-26.81Z"/>
          <path class="cls-1" d="M867.2,112.55h23.7l52.46,137.95h-27.59l-12.82-34.39h-48.19l-12.63,34.39h-27.59l52.66-137.95Zm30.89,84.72l-19.04-54.21-19.82,54.21h38.86Z"/>
          <path class="cls-1" d="M958.52,250.51V112.55h61.01c6.35,0,12.21,1.33,17.58,3.98,5.37,2.66,10.01,6.15,13.89,10.49,3.89,4.34,6.93,9.26,9.13,14.77,2.2,5.51,3.3,11.05,3.3,16.61,0,8.94-2.23,17.07-6.7,24.38-4.47,7.32-10.53,12.6-18.17,15.84l31.48,51.88h-30.12l-28.17-46.24h-26.43v46.24h-26.81Zm26.81-69.75h33.61c2.46,0,4.76-.58,6.9-1.75,2.14-1.17,3.98-2.75,5.54-4.76,1.55-2.01,2.78-4.37,3.69-7.09,.91-2.72,1.36-5.64,1.36-8.74s-.52-6.22-1.55-8.94c-1.04-2.72-2.43-5.08-4.18-7.09-1.75-2.01-3.76-3.56-6.02-4.66-2.27-1.1-4.57-1.65-6.9-1.65h-32.45v44.69Z"/>
          <path class="cls-1" d="M1087.73,250.51V112.75h26.81v65.48l57.9-65.67h29.53l-52.85,61.21,56.15,76.75h-30.12l-42.94-59.65-17.68,18.46v41.19h-26.81Z"/>
        </g>
      </g>
    </g>
  </g>
</svg>